<?xml version="1.0" encoding="utf-8"?>
<!-- Generator: Adobe Illustrator 26.0.0, SVG Export Plug-In . SVG Version: 6.00 Build 0)  -->
<svg version="1.1" id="Layer_1" xmlns="http://www.w3.org/2000/svg" xmlns:xlink="http://www.w3.org/1999/xlink" x="0px" y="0px"
	 viewBox="0 0 575 575" style="enable-background:new 0 0 575 575;" xml:space="preserve">
<style type="text/css">
	.st0{fill:#FEB918;}
	.st1{fill:none;stroke:#FFFFFF;}
	.st2{fill:#FFFFFF;}
</style>
<path class="st0" d="M287.5,14L287.5,14C438.5,14,561,136.5,561,287.5l0,0c0,151-122.5,273.5-273.5,273.5l0,0
	C136.5,561,14,438.5,14,287.5l0,0C14,136.5,136.5,14,287.5,14z"/>
<path class="st1" d="M287.5,28.5L287.5,28.5c143.1,0,259,116,259,259l0,0c0,143.1-116,259-259,259l0,0c-143.1,0-259-116-259-259l0,0
	C28.5,144.4,144.4,28.5,287.5,28.5z"/>
<path class="st2" d="M401,407.8c4.7-4.5,12.2-3.8,16.5,1.1c5.8,6.8,2.3,17.2-5.9,20.8c-14.2,6.2-22.8,15.8-31.1,34.7
	c-0.5,1.2-2.3,1.3-2.9,0c-0.1-0.2-0.1-0.5-0.1-0.7C379.2,436,385.6,422.5,401,407.8z"/>
<g>
	<path class="st2" d="M165.7,169.3c3.6-1.4,7.4,0.7,8.6,4.3c1.6,5-2.6,9.8-7.8,9.9c-9.1,0.2-15.8,3.4-24.5,11.7
		c-0.6,0.5-1.5,0.2-1.6-0.6c0-0.1,0-0.3,0.1-0.4C147.6,179.6,154.1,173.7,165.7,169.3z"/>
	<path class="st2" d="M150.6,154c2.5-1.8,6-0.9,7.6,1.7c2.2,3.6-0.2,8.2-4.3,9.3c-7.1,1.9-11.8,5.7-17.1,14
		c-0.3,0.5-1.2,0.4-1.3-0.2c0-0.1,0-0.2,0-0.3C138.4,165.6,142.4,159.7,150.6,154z"/>
	<path class="st2" d="M131,154.4c-0.8-2.2-3.3-3.2-5.4-2.3c-3,1.2-3.5,5.1-1.5,7.6c3.5,4.3,4.7,8.7,4.3,16.1c0,0.5,0.5,0.8,0.9,0.5
		c0.1-0.1,0.1-0.1,0.2-0.2C133.4,167,133.5,161.6,131,154.4z"/>
</g>
<path class="st2" d="M159,422l1.3,4.3l5-0.2l-4.2,2.4l1.8,4.1l-3.9-2.8l-3.9,2.8l1.8-4.1l-4.2-2.4l5,0.2L159,422z"/>
<path class="st2" d="M145.3,400.4l2.6,7.9l10.1-0.4l-8.5,4.5l3.6,7.7l-7.8-5.2l-7.8,5.2l3.6-7.7l-8.5-4.5l10.1,0.4L145.3,400.4z"/>
<g>
	<path class="st2" d="M407.3,162.7l1.3,4.3l5-0.2l-4.2,2.4l1.8,4.1l-3.9-2.8l-3.9,2.8l1.8-4.1l-4.2-2.4l5,0.2L407.3,162.7z"/>
	<path class="st2" d="M440.7,152l1.3,4.3l5-0.2l-4.2,2.4l1.8,4.1l-3.9-2.8l-3.9,2.8l1.8-4.1l-4.2-2.4l5,0.2L440.7,152z"/>
	<path class="st2" d="M440.7,184.4l1.3,4.3l5-0.2l-4.2,2.4l1.8,4.1l-3.9-2.8l-3.9,2.8l1.8-4.1l-4.2-2.4l5,0.2L440.7,184.4z"/>
	<path class="st2" d="M429,162.7l2.6,7.9l10.1-0.4l-8.5,4.5l3.6,7.7l-7.8-5.2l-7.8,5.2l3.6-7.7l-8.5-4.5l10.1,0.4L429,162.7z"/>
</g>
</svg>
